<svg width="64" height="64" viewBox="0 0 64 64" fill="none" xmlns="http://www.w3.org/2000/svg">
<g clip-path="url(#clip0_11675_12307)">
<path fill-rule="evenodd" clip-rule="evenodd" d="M2 19.4544V18.1162C2 17.7032 2.33855 17.3606 2.76012 17.3606C5.00526 17.3606 6.71511 15.8112 7.43788 14.0732C8.1715 12.3092 8.02066 10.0352 6.44709 8.46162C6.14883 8.16336 6.15173 7.68152 6.44382 7.38942L7.38923 6.44401C7.68127 6.15198 8.1638 6.1488 8.46259 6.44759C10.0356 8.0206 12.3091 8.17219 14.0732 7.43885C15.8115 6.71621 17.3609 5.00597 17.3609 2.761C17.3609 2.33879 17.704 2 18.117 2H19.4533C19.8661 2 20.2102 2.33916 20.2102 2.76244C20.2102 5.00619 21.7583 6.71673 23.4964 7.43958C25.2606 8.17331 27.5343 8.02112 29.1069 6.44846C29.4064 6.14899 29.8898 6.15257 30.1816 6.44443L31.1255 7.38833C31.4175 7.68028 31.4211 8.16383 31.1215 8.46341C29.5489 10.036 29.3966 12.3096 30.1302 14.0739C30.853 15.8122 32.5637 17.3606 34.8077 17.3606C35.2312 17.3606 35.5704 17.7049 35.5704 18.1177V19.4529C35.5704 19.8657 35.2312 20.2099 34.8078 20.2099C32.5638 20.2099 30.8531 21.7583 30.1303 23.4967C29.3968 25.261 29.5495 27.5345 31.1219 29.1069C31.4219 29.4069 31.4181 29.891 31.1261 30.1829L30.1827 31.1263C29.8907 31.4183 29.4073 31.4218 29.1079 31.1224C27.5349 29.5495 25.261 29.3975 23.4966 30.1313C21.7586 30.8542 20.2102 32.5645 20.2102 34.8086C20.2102 35.2314 19.8665 35.5704 19.4536 35.5704H18.1167C17.7036 35.5704 17.3609 35.2318 17.3609 34.8101C17.3609 32.5647 15.8111 30.8547 14.0729 30.132C12.3087 29.3986 10.0349 29.55 8.46164 31.1232C8.16287 31.422 7.68033 31.4189 7.38815 31.1267L6.44322 30.1818C6.15112 29.8897 6.14803 29.4073 6.4467 29.1087C8.02001 27.5354 8.17128 25.2615 7.43771 23.4973C6.715 21.7594 5.00515 20.2099 2.76007 20.2099C2.33851 20.2099 2 19.8674 2 19.4544ZM18.7855 27.3865C23.5357 27.3865 27.3866 23.5357 27.3866 18.7854C27.3866 14.0351 23.5357 10.1843 18.7855 10.1843C14.0352 10.1843 10.1843 14.0351 10.1843 18.7854C10.1843 23.5357 14.0352 27.3865 18.7855 27.3865ZM5.029 31.596C3.95258 30.5196 3.95606 28.7709 5.03248 27.6945C5.926 26.8009 6.07618 25.432 5.591 24.2653C5.10589 23.0987 4.02351 22.2099 2.76007 22.2099C1.23824 22.2099 0 20.9762 0 19.4544V18.1162C0 16.5944 1.23824 15.3606 2.76012 15.3606C4.02362 15.3606 5.10603 14.4719 5.59121 13.3052C6.07648 12.1384 5.92649 10.7694 5.03287 9.87583C3.95665 8.79961 3.95338 7.05144 5.02961 5.97521L5.97502 5.0298C7.05148 3.95334 8.80034 3.95692 9.8768 5.03338C10.7701 5.92672 12.1388 6.07704 13.3054 5.59207C14.4721 5.10708 15.3609 4.02445 15.3609 2.761C15.3609 1.23885 16.5948 0 18.117 0H19.4533C20.9759 0 22.2102 1.23988 22.2102 2.76244C22.2102 4.02527 23.0984 5.10799 24.2644 5.59292C25.4307 6.07798 26.7995 5.92742 27.6927 5.03425C28.7694 3.95754 30.5191 3.9535 31.5958 5.03021L32.5397 5.97412C33.6166 7.05093 33.6125 8.80081 32.5357 9.87762C31.6425 10.7708 31.4919 12.1396 31.9769 13.306C32.4618 14.4722 33.5447 15.3606 34.8077 15.3606C36.3304 15.3606 37.5704 16.595 37.5704 18.1177V19.4529C37.5704 20.9756 36.3304 22.2099 34.8078 22.2099C33.5448 22.2099 32.4619 23.0983 31.9771 24.2645C31.4922 25.4307 31.643 26.7996 32.5361 27.6927C33.6131 28.7697 33.6174 30.5201 32.5404 31.5971L31.5969 32.5405C30.5201 33.6173 28.7704 33.6134 27.6936 32.5366C26.8003 31.6432 25.4312 31.4928 24.2647 31.9779C23.0985 32.463 22.2102 33.5456 22.2102 34.8086C22.2102 36.331 20.976 37.5704 19.4536 37.5704H18.1167C16.5947 37.5704 15.3609 36.3321 15.3609 34.8101C15.3609 33.5464 14.4719 32.4639 13.3051 31.9788C12.1383 31.4937 10.7694 31.6439 9.87586 32.5375C9.48477 32.9285 9.00495 33.178 8.50087 33.2855L8.50094 39.216C8.50104 48.624 16.1021 56.2542 25.4819 56.2681C29.9532 56.2747 34.2476 54.5157 37.435 51.3713L37.4425 51.3639L37.4425 51.3639L40.4849 48.4249C39.0821 48.4463 37.6645 48.1063 36.377 47.3849L36.3764 47.3846L27.9893 42.6777L26.1527 41.6469L28.1123 40.8751L61.8908 27.5729L64.0318 26.7297L63.1875 28.8703L49.8731 62.6242L49.1013 64.5806L48.071 62.7471L45.2329 57.6964V57.7051L43.3608 54.3681C42.4859 52.8086 42.1714 51.0571 42.3821 49.3729L38.8396 52.795L38.8359 52.7987C35.2743 56.3103 30.4759 58.2754 25.479 58.2681C14.9908 58.2526 6.50105 49.7225 6.50094 39.216L6.50087 33.0657L6.70666 33.0657C6.44199 32.9358 6.19393 32.7609 5.97394 32.541L5.029 31.596ZM18.7855 25.3865C22.4311 25.3865 25.3866 22.4311 25.3866 18.7854C25.3866 15.1397 22.4311 12.1843 18.7855 12.1843C15.1398 12.1843 12.1843 15.1397 12.1843 18.7854C12.1843 22.4311 15.1398 25.3865 18.7855 25.3865ZM43.3629 45.6446L53.1329 36.2064L58.1466 31.1969L30.8048 41.9643L37.3546 45.6401L53.1329 36.2064L37.3552 45.6404C39.2553 46.7048 41.5303 46.6688 43.3629 45.6446ZM46.1204 46.0436C46.0901 46.0739 46.0595 46.1039 46.0288 46.1336C44.1911 48.0467 43.7924 50.9268 45.0393 53.2692L45.1047 53.3857L48.7843 59.9339L59.5622 32.6104L46.1209 46.0431L46.1204 46.0436Z" fill="#1EB8B8"/>
</g>
<defs>
<clipPath id="clip0_11675_12307">
<rect width="64" height="64" fill="white"/>
</clipPath>
</defs>
</svg>
