<svg width="61" height="62" viewBox="0 0 61 62" fill="none" xmlns="http://www.w3.org/2000/svg">
<path d="M30.3318 30.2753C30.3318 34.9374 26.5524 38.7169 21.8902 38.7169H15.667C11.0959 38.7169 7.39031 42.4225 7.39031 46.9935M30.3336 30.2753C30.3336 34.9374 34.113 38.7169 38.7752 38.7169H44.9984C49.5695 38.7169 53.2751 42.4225 53.2751 46.9935M20.7432 26.3145C20.7432 24.3185 22.3613 22.7004 24.3573 22.7004H24.6991C26.5063 22.7004 27.9714 21.2354 27.9714 19.4282M39.9182 26.3145C39.9182 24.3185 38.3001 22.7004 36.3041 22.7004H35.9623C34.1551 22.7004 32.6901 21.2354 32.6901 19.4282M44.2625 15.9304C44.2625 23.6239 38.0256 29.8607 30.3321 29.8607C22.6386 29.8607 16.4018 23.6239 16.4018 15.9304C16.4018 8.23684 22.6386 2 30.3321 2C38.0256 2 44.2625 8.23684 44.2625 15.9304ZM30.3314 7.78113C33.6307 7.78113 36.3053 10.4557 36.3053 13.755C36.3053 17.0543 33.6306 19.7289 30.3314 19.7289C27.0321 19.7289 24.3575 17.0543 24.3575 13.755C24.3575 10.4557 27.0321 7.78113 30.3314 7.78113ZM8.73354 48.1928C11.4327 48.8038 13.448 51.217 13.448 54.1009C13.448 57.4464 10.736 60.1584 7.3905 60.1584C4.04504 60.1584 1.33301 57.4464 1.33301 54.1009C1.33301 51.2196 3.34472 48.8081 6.04021 48.1945C6.49283 48.0275 6.87067 47.7064 7.11007 47.2947H7.66814C7.90675 47.705 8.2829 48.0254 8.73354 48.1928ZM51.932 48.1928C49.2331 48.804 47.218 51.2171 47.218 54.1008C47.218 57.4463 49.93 60.1583 53.2755 60.1583C56.621 60.1583 59.333 57.4463 59.333 54.1008C59.333 51.2193 57.3211 48.8078 54.6253 48.1943C54.1729 48.0273 53.7951 47.7062 53.5558 47.2946H52.9977C52.759 47.705 52.3828 48.0255 51.932 48.1928Z" stroke="#D9582E" stroke-width="2.10909"/>
</svg>
