<svg width="62" height="58" viewBox="0 0 62 58" fill="none" xmlns="http://www.w3.org/2000/svg">
<path d="M4.04686 51.8035L5.04686 51.8056C5.04743 51.5393 4.94171 51.2837 4.75314 51.0955C4.56457 50.9074 4.30874 50.8023 4.04239 50.8035L4.04686 51.8035ZM3.96081 51.8039L3.95634 50.8039H3.95627L3.96081 51.8039ZM57.233 20.9726L57.2375 19.9726C56.9712 19.9714 56.7153 20.0765 56.5267 20.2647C56.3382 20.4528 56.2324 20.7084 56.233 20.9747L57.233 20.9726ZM57.3394 20.9731L57.3439 19.9731H57.3439L57.3394 20.9731ZM57.2476 27.8436L58.2476 27.8414L57.2476 27.8436ZM45.8569 16.1913L44.8569 16.1917H46.8569L45.8569 16.1913ZM44.5001 12.8921L45.2105 12.1883L44.5001 12.8921ZM50.412 44.9873H25.5541V46.9873H50.412V44.9873ZM25.5541 44.9873H25.231V46.9873H25.5541V44.9873ZM4.60986 35.7009V35.6681H2.60986V35.7009H4.60986ZM4.60986 35.6681V17.1706H2.60986V35.6681H4.60986ZM10.4448 11.3541H30.6363V9.35413H10.4448V11.3541ZM56.247 21.5502V27.5246H58.247V21.5502H56.247ZM56.247 27.5246V27.7709H58.247V27.5246H56.247ZM56.247 27.7709V39.1708H58.247V27.7709H56.247ZM50.412 46.9873C54.7366 46.9873 58.247 43.4902 58.247 39.1708H56.247C56.247 42.3806 53.6371 44.9873 50.412 44.9873V46.9873ZM4.60986 17.1706C4.60986 13.9608 7.2197 11.3541 10.4448 11.3541V9.35413C6.12022 9.35413 2.60986 12.8512 2.60986 17.1706H4.60986ZM3.7174 21.9689H33.8937V19.9689H3.7174V21.9689ZM33.8937 21.9689H34.5517V19.9689H33.8937V21.9689ZM3.94738 36.6491H22.6067V34.6491H3.94738V36.6491ZM24.5541 38.5885V45.9873H26.5541V38.5885H24.5541ZM24.5541 45.9873V48.8779H26.5541V45.9873H24.5541ZM2 48.8645V38.5885H0V48.8645H2ZM4.04239 50.8035L3.95634 50.8039L3.96529 52.8039L4.05134 52.8035L4.04239 50.8035ZM22.6067 50.8173H9.51055V52.8173H22.6067V50.8173ZM3.03502 57.3588L3.03497 57.3834L5.03496 57.3877L5.03502 57.363L3.03502 57.3588ZM5.03501 57.3652C5.04579 54.8363 7.06112 52.8173 9.51055 52.8173V50.8173C5.92798 50.8173 3.05036 53.7587 3.03503 57.3566L5.03501 57.3652ZM0 48.8645C0 51.0497 1.78084 52.8138 3.96536 52.8039L3.95627 50.8039C2.87473 50.8088 2 49.9365 2 48.8645H0ZM24.5541 48.8779C24.5541 49.9465 23.6848 50.8173 22.6067 50.8173V52.8173C24.7842 52.8173 26.5541 51.0561 26.5541 48.8779H24.5541ZM22.6067 36.6491C23.6848 36.6491 24.5541 37.5199 24.5541 38.5885H26.5541C26.5541 36.4103 24.7842 34.6491 22.6067 34.6491V36.6491ZM3.94738 34.6491C3.79543 34.6491 3.64509 34.6577 3.4969 34.6745L3.72283 36.6617C3.79615 36.6534 3.87106 36.6491 3.94738 36.6491V34.6491ZM3.49689 34.6745C1.53063 34.8981 0 36.5624 0 38.5885H2C2 37.5954 2.75141 36.7722 3.72283 36.6617L3.49689 34.6745ZM6.10461 42.6727H20.4494V40.6727H6.10461V42.6727ZM6.10462 46.8195H20.4494V44.8195H6.10462V46.8195ZM57.356 0H34.2864V2H57.356V0ZM29.6424 4.6342V17.3555H31.6424V4.6342H29.6424ZM62 17.3389V4.63419H60V17.3389H62ZM57.2285 21.9726L57.3348 21.9731L57.3439 19.9731L57.2375 19.9726L57.2285 21.9726ZM34.2864 21.9897H50.4779V19.9897H34.2864V21.9897ZM56.2476 27.8457L56.2477 27.8762L58.2477 27.8719L58.2476 27.8414L56.2476 27.8457ZM58.2476 27.8393C58.2475 27.8117 58.2472 27.7841 58.2469 27.7565L56.2471 27.7853C56.2474 27.8061 56.2476 27.827 56.2476 27.8479L58.2476 27.8393ZM58.2469 27.7564C58.185 23.4721 54.7456 19.9909 50.4779 19.9909V21.9909C53.6202 21.9909 56.2005 24.5618 56.2471 27.7853L58.2469 27.7564ZM60 17.3389C60 18.7959 58.8114 19.9798 57.3439 19.9731L57.3348 21.9731C59.9053 21.9848 62 19.9091 62 17.3389H60ZM29.6424 17.3555C29.6424 19.7491 31.4589 21.7144 33.7874 21.9632L33.9999 19.9745C32.6727 19.8327 31.6424 18.7115 31.6424 17.3555H29.6424ZM33.7874 21.9632C33.9517 21.9808 34.1182 21.9897 34.2864 21.9897V19.9897C34.1893 19.9897 34.0937 19.9846 33.9999 19.9745L33.7874 21.9632ZM34.2864 0C31.7241 0 29.6424 2.07226 29.6424 4.6342H31.6424C31.6424 3.18191 32.8236 2 34.2864 2V0ZM57.356 2C58.8188 2 60 3.18191 60 4.63419H62C62 2.07226 59.9183 0 57.356 0V2ZM3.04686 51.8013L3.03502 57.3588L5.03502 57.363L5.04686 51.8056L3.04686 51.8013ZM56.233 20.9747L56.247 27.5267L58.247 27.5224L58.233 20.9705L56.233 20.9747ZM56.247 27.5267L56.2476 27.8457L58.2476 27.8414L58.247 27.5224L56.247 27.5267ZM59.566 2.51913C58.9285 1.74867 58.9284 1.74871 58.9283 1.74879C58.9283 1.74886 58.9281 1.74897 58.9279 1.74912C58.9276 1.74941 58.9271 1.74985 58.9264 1.75043C58.925 1.75159 58.9229 1.75332 58.9201 1.75562C58.9145 1.76022 58.9062 1.76707 58.8953 1.77611C58.8735 1.79419 58.8411 1.82102 58.7988 1.85604C58.7142 1.92608 58.59 2.0289 58.4317 2.16005C58.115 2.42234 57.6618 2.79796 57.1153 3.25133C56.0224 4.15802 54.5562 5.37591 53.0637 6.62038C51.5715 7.86459 50.0516 9.13648 48.8517 10.1508C47.6783 11.1427 46.7529 11.9363 46.5033 12.1883L47.924 13.596C48.0934 13.425 48.9215 12.7106 50.1428 11.6782C51.3375 10.6683 52.8534 9.39978 54.3445 8.15647C55.8353 6.91342 57.3001 5.69666 58.3923 4.79059C58.9383 4.33758 59.3912 3.96228 59.7075 3.70025C59.8657 3.56924 59.9897 3.46655 60.0742 3.39662C60.1164 3.36166 60.1487 3.33489 60.1705 3.31686C60.1814 3.30785 60.1896 3.30102 60.1952 3.29646C60.1979 3.29417 60.2 3.29245 60.2014 3.2913C60.2021 3.29073 60.2026 3.2903 60.2029 3.29001C60.2031 3.28987 60.2033 3.28976 60.2033 3.28969C60.2034 3.28962 60.2035 3.28959 59.566 2.51913ZM46.8569 16.1917C46.8573 15.1777 47.2642 14.2619 47.924 13.596L46.5033 12.1883C45.4869 13.2142 44.8575 14.63 44.8569 16.1909L46.8569 16.1917ZM32.1478 2.51913C31.5103 3.28959 31.5103 3.28962 31.5104 3.28969C31.5105 3.28976 31.5106 3.28987 31.5108 3.29001C31.5111 3.2903 31.5117 3.29073 31.5124 3.2913C31.5137 3.29245 31.5158 3.29417 31.5186 3.29646C31.5241 3.30102 31.5324 3.30785 31.5432 3.31686C31.565 3.33489 31.5974 3.36166 31.6396 3.39662C31.7241 3.46655 31.8481 3.56924 32.0062 3.70025C32.3226 3.96228 32.7754 4.33758 33.3215 4.79059C34.4137 5.69666 35.8785 6.91342 37.3693 8.15647C38.8604 9.39978 40.3762 10.6683 41.5709 11.6782C42.7922 12.7106 43.6204 13.425 43.7898 13.596L45.2105 12.1883C44.9608 11.9363 44.0354 11.1427 42.8621 10.1508C41.6622 9.13648 40.1423 7.86459 38.6501 6.62038C37.1576 5.37591 35.6914 4.15802 34.5985 3.25133C34.052 2.79796 33.5987 2.42234 33.2821 2.16005C33.1238 2.0289 32.9996 1.92608 32.915 1.85604C32.8727 1.82102 32.8403 1.79419 32.8184 1.77611C32.8075 1.76707 32.7992 1.76022 32.7937 1.75562C32.7909 1.75332 32.7888 1.75159 32.7874 1.75043C32.7867 1.74985 32.7862 1.74941 32.7858 1.74912C32.7856 1.74897 32.7855 1.74886 32.7854 1.74879C32.7853 1.74871 32.7853 1.74867 32.1478 2.51913ZM46.8569 16.1909C46.8563 14.63 46.2269 13.2142 45.2105 12.1883L43.7898 13.596C44.4495 14.2619 44.8565 15.1777 44.8569 16.1917L46.8569 16.1909Z" fill="#6358DE"/>
</svg>
